<?xml version="1.0" encoding="UTF-8" standalone="no"?>
<!DOCTYPE svg PUBLIC "-//W3C//DTD SVG 1.1//EN" "http://www.w3.org/Graphics/SVG/1.1/DTD/svg11.dtd">
<svg version="1.1" xmlns="http://www.w3.org/2000/svg" xmlns:xlink="http://www.w3.org/1999/xlink" preserveAspectRatio="xMidYMid meet" viewBox="0 0 100 100" width="100" height="100"><defs><path d="M16.34 59.11C26.69 49.9 38.47 49.9 51.69 59.11C64.9 68.32 75.75 68.32 84.23 59.11L84.23 30.87C77.35 45.69 66.51 48.1 51.69 38.08C36.87 28.07 25.09 27.27 16.34 35.68L16.34 59.11Z" id="a3XD5jhknt"></path><path d="M15.77 29.6L15.78 29.3L15.8 29.01L15.82 28.72L15.86 28.44L15.92 28.16L15.98 27.88L16.05 27.61L16.14 27.34L16.23 27.08L16.33 26.82L16.45 26.57L16.57 26.32L16.7 26.08L16.84 25.84L16.99 25.61L17.15 25.38L17.31 25.17L17.49 24.95L17.67 24.75L17.86 24.55L18.06 24.36L18.26 24.18L18.47 24.01L18.69 23.84L18.92 23.68L19.15 23.53L19.38 23.39L19.63 23.26L19.88 23.14L20.13 23.02L20.39 22.92L20.48 22.89L20.48 73.62L15.77 68.32L15.77 68.32L15.77 29.6Z" id="cTwqEwGZg"></path></defs><g><g><g><use xlink:href="#a3XD5jhknt" opacity="1" fill="#2170ba" fill-opacity="1"></use><g><use xlink:href="#a3XD5jhknt" opacity="1" fill-opacity="0" stroke="#000000" stroke-width="1" stroke-opacity="0"></use></g></g><g><use xlink:href="#cTwqEwGZg" opacity="1" fill="#ffb362" fill-opacity="1"></use><g><use xlink:href="#cTwqEwGZg" opacity="1" fill-opacity="0" stroke="#000000" stroke-width="1" stroke-opacity="0"></use></g></g></g></g></svg>